<?xml version="1.0" standalone="no"?>
<!DOCTYPE svg PUBLIC "-//W3C//DTD SVG 20010904//EN"
 "http://www.w3.org/TR/2001/REC-SVG-20010904/DTD/svg10.dtd">
<svg version="1.0" xmlns="http://www.w3.org/2000/svg"
 width="512.000000pt" height="512.000000pt" viewBox="0 0 512.000000 512.000000"
 preserveAspectRatio="xMidYMid meet">
<metadata>
Created by potrace 1.14, written by Peter Selinger 2001-2017
</metadata>
<g transform="translate(0.000000,512.000000) scale(0.100000,-0.100000)"
fill="#000000" stroke="none">
<path d="M1225 3754 c-445 -71 -733 -355 -835 -824 -58 -264 -48 -713 21 -960
81 -289 257 -514 494 -632 287 -144 748 -126 1030 39 90 52 212 165 267 247
75 110 127 251 146 399 l9 67 -253 0 -253 0 -6 -37 c-21 -140 -64 -233 -138
-298 -121 -109 -384 -137 -557 -59 -121 54 -211 190 -253 380 -20 90 -22 128
-22 419 0 294 2 328 22 420 71 320 258 462 564 428 171 -19 272 -83 330 -208
28 -59 58 -175 59 -222 l0 -23 256 0 255 0 -6 48 c-59 425 -311 707 -714 798
-65 15 -356 27 -416 18z"/>
<path d="M2945 2543 c-241 -648 -447 -1199 -457 -1226 l-18 -47 272 2 271 3
82 245 82 245 444 0 444 0 84 -247 83 -248 270 0 c212 0 269 3 265 13 -2 6
-208 558 -458 1224 l-454 1213 -236 0 -235 0 -439 -1177z m829 92 c80 -242
146 -443 146 -448 0 -4 -135 -7 -301 -7 -260 0 -300 2 -297 15 12 56 294 892
299 886 4 -3 72 -204 153 -446z"/>
</g>
</svg>
